Coordinates
version=1
nRows=8
nColumns=34
inDegrees=yes

Units are S.I. units (second, meters, Newtons, ...)
Angles are in degrees.

endheader
time	pelvis_tilt	pelvis_list	pelvis_rotation	pelvis_tx	pelvis_ty	pelvis_tz	hip_flexion_r	hip_adduction_r	hip_rotation_r	knee_angle_r	ankle_angle_r	subtalar_angle_r	mtp_angle_r	hip_flexion_l	hip_adduction_l	hip_rotation_l	knee_angle_l	socket_flexion	socket_adduction	socket_rotation	socket_tx	socket_ty	socket_tz	pros_ankle_rx	pros_ankle_ry	pros_ankle_rz	pros_ankle_tx	pros_ankle_ty	pros_ankle_tz	foot_flex	lumbar_extension	lumbar_bending	lumbar_rotation
      0.60416667	     -4.17816462	     -1.89071661	     12.12298680	      0.03591998	      1.02237301	      0.31616355	     25.48880052	     -1.38650736	    -13.33918829	      0.65508204	     12.52410823	      8.08176504	     10.02381274	     -8.04711424	     -1.30414164	     11.93569015	    -21.95400518	      0.00000000	      0.00000000	      0.00000000	      0.00000000	     -0.00979934	      0.00000000	      0.00000000	      0.00000000	      0.00000000	      0.00000000	      0.00000000	      0.00000000	     17.07408828	     -9.32540299	     -2.63105701	    -39.55608067
      0.60833333	     -4.12235507	     -1.93263829	     12.29461345	      0.04231987	      1.02154643	      0.31626037	     25.43533702	     -1.33725519	    -13.09437879	      0.40136647	     12.32232963	      8.17316017	     10.05359097	     -8.23905143	     -1.44939565	     12.04425397	    -22.33455018	      0.00000000	      0.00000000	      0.00000000	      0.00000000	     -0.00970095	      0.00000000	      0.00000000	      0.00000000	      0.00000000	      0.00000000	      0.00000000	      0.00000000	     17.07078528	     -9.20494880	     -2.55293428	    -39.58098553
      0.61250000	     -4.07652779	     -2.01167699	     12.45327867	      0.04847218	      1.02067841	      0.31629044	     25.51503584	     -1.29217867	    -12.90936393	     -0.03967336	     11.66500785	      8.28381908	     10.21705283	     -8.31417556	     -1.60719210	     12.08716401	    -22.87437434	      0.00000000	      0.00000000	      0.00000000	      0.00000000	     -0.00951720	      0.00000000	      0.00000000	      0.00000000	      0.00000000	      0.00000000	      0.00000000	      0.00000000	     17.18734526	     -9.32058705	     -2.23645667	    -39.67867311
      0.61666667	     -3.99082758	     -2.08260604	     12.61746912	      0.05492061	      1.01995067	      0.31637943	     25.42891754	     -1.20428316	    -12.67562462	     -0.37898527	     11.40424231	      8.36197804	     10.26072937	     -8.48963167	     -1.78015815	     12.18337575	    -23.33589394	      0.00000000	      0.00000000	      0.00000000	      0.00000000	     -0.00944286	      0.00000000	      0.00000000	      0.00000000	      0.00000000	      0.00000000	      0.00000000	      0.00000000	     17.13326436	     -9.18902253	     -2.16187118	    -39.69875881
      0.62083333	     -3.90084111	     -2.18791320	     12.73063525	      0.06107002	      1.01921074	      0.31644850	     25.53989295	     -1.11778987	    -12.53451837	     -1.01714697	     10.57798779	      8.41863776	     10.42224209	     -8.55350475	     -1.95755015	     12.16108431	    -23.97358136	      0.00000000	      0.00000000	      0.00000000	      0.00000000	     -0.00918050	      0.00000000	      0.00000000	      0.00000000	      0.00000000	      0.00000000	      0.00000000	      0.00000000	     17.25766950	     -9.35662616	     -1.72331436	    -39.75162289
      0.62500000	     -3.79791933	     -2.32615869	     12.86104941	      0.06735290	      1.01854707	      0.31653726	     25.60931421	     -0.98899208	    -12.44815109	     -1.65973383	      9.90775430	      8.41815811	     10.67668173	     -8.63072430	     -2.17799534	     12.17303514	    -24.60414649	      0.00000000	      0.00000000	      0.00000000	      0.00000000	     -0.00905735	      0.00000000	      0.00000000	      0.00000000	      0.00000000	      0.00000000	      0.00000000	      0.00000000	     17.24741247	     -9.41901379	     -1.44703075	    -39.75774929
      0.62916667	     -3.68115745	     -2.46998440	     12.96267063	      0.07363502	      1.01794593	      0.31663485	     25.67443399	     -0.84744945	    -12.35302358	     -2.34796317	      9.24154285	      8.41840280	     10.95427801	     -8.69274959	     -2.39653304	     12.15353168	    -25.28624548	      0.00000000	      0.00000000	      0.00000000	      0.00000000	     -0.00889284	      0.00000000	      0.00000000	      0.00000000	      0.00000000	      0.00000000	      0.00000000	      0.00000000	     17.23239242	     -9.47746470	     -1.12675391	    -39.73695245
      0.63333333	     -3.54580562	     -2.61350549	     13.05081001	      0.07992509	      1.01740400	      0.31677076	     25.72972216	     -0.69443860	    -12.27034448	     -3.07451447	      8.58292635	      8.40745136	     11.20826562	     -8.74572050	     -2.61281381	     12.09669998	    -26.01440472	      0.00000000	      0.00000000	      0.00000000	      0.00000000	     -0.00871696	      0.00000000	      0.00000000	      0.00000000	      0.00000000	      0.00000000	      0.00000000	      0.00000000	     17.18717138	     -9.54028151	     -0.80290927	    -39.69247246
